<svg xmlns="http://www.w3.org/2000/svg" xmlns:xlink="http://www.w3.org/1999/xlink" width="500" zoomAndPan="magnify" viewBox="0 0 375 374.999991" height="500" preserveAspectRatio="xMidYMid meet" version="1.0"><defs><g/><clipPath id="af7043d5eb"><path d="M 201.882812 85.589844 L 246.769531 85.589844 L 246.769531 232.871094 L 201.882812 232.871094 Z M 201.882812 85.589844 " clip-rule="nonzero"/></clipPath><clipPath id="51bfb6b519"><path d="M 246.769531 100.554688 L 246.769531 232.773438 L 201.882812 217.8125 L 201.882812 85.589844 Z M 246.769531 100.554688 " clip-rule="nonzero"/></clipPath><clipPath id="06b15a8374"><path d="M 164.359375 85.578125 L 201.890625 85.578125 L 201.890625 127.800781 L 164.359375 127.800781 Z M 164.359375 85.578125 " clip-rule="nonzero"/></clipPath><clipPath id="26e6f6a264"><path d="M 164.359375 98.09375 L 164.359375 127.800781 L 201.890625 115.289062 L 201.890625 85.582031 Z M 164.359375 98.09375 " clip-rule="nonzero"/></clipPath><clipPath id="5aee795e68"><path d="M 147.421875 121.90625 L 179.625 121.90625 L 179.625 210.214844 L 147.421875 210.214844 Z M 147.421875 121.90625 " clip-rule="nonzero"/></clipPath><clipPath id="f0a47ff9ee"><path d="M 179.625 132.640625 L 179.625 210.160156 L 147.421875 199.425781 L 147.421875 121.90625 Z M 179.625 132.640625 " clip-rule="nonzero"/></clipPath><clipPath id="66314deb40"><path d="M 122.058594 121.820312 L 147.429688 121.820312 L 147.429688 183.660156 L 122.058594 183.660156 Z M 122.058594 121.820312 " clip-rule="nonzero"/></clipPath><clipPath id="10f5a3bcf0"><path d="M 122.058594 130.351562 L 122.058594 183.660156 L 147.429688 175.203125 L 147.429688 121.894531 Z M 122.058594 130.351562 " clip-rule="nonzero"/></clipPath></defs><g clip-path="url(#af7043d5eb)"><g clip-path="url(#51bfb6b519)"><path fill="#ffffff" d="M 246.769531 85.589844 L 246.769531 232.695312 L 201.882812 232.695312 L 201.882812 85.589844 Z M 246.769531 85.589844 " fill-opacity="1" fill-rule="nonzero"/></g></g><g clip-path="url(#06b15a8374)"><g clip-path="url(#26e6f6a264)"><path fill="#c0c0c0" d="M 164.359375 127.800781 L 164.359375 85.578125 L 201.890625 85.578125 L 201.890625 127.800781 Z M 164.359375 127.800781 " fill-opacity="1" fill-rule="nonzero"/></g></g><g clip-path="url(#5aee795e68)"><g clip-path="url(#f0a47ff9ee)"><path fill="#ffffff" d="M 179.625 121.90625 L 179.625 210.214844 L 147.421875 210.214844 L 147.421875 121.90625 Z M 179.625 121.90625 " fill-opacity="1" fill-rule="nonzero"/></g></g><g clip-path="url(#66314deb40)"><g clip-path="url(#10f5a3bcf0)"><path fill="#c0c0c0" d="M 122.058594 183.660156 L 122.058594 121.921875 L 147.429688 121.921875 L 147.429688 183.660156 Z M 122.058594 183.660156 " fill-opacity="1" fill-rule="nonzero"/></g></g><g fill="#ffffff" fill-opacity="1"><g transform="translate(113.367184, 277.951285)"><g><path d="M 15 -4.921875 L 15.640625 -4.921875 L 15.640625 -0.078125 C 15.640625 -0.0546875 15.601562 -0.0351562 15.53125 -0.015625 C 15.46875 -0.00390625 15.289062 0 15 0 L 14.953125 0 C 13.085938 0 11.378906 -0.210938 9.828125 -0.640625 C 8.285156 -1.066406 6.992188 -1.570312 5.953125 -2.15625 C 5.234375 -2.53125 4.734375 -2.957031 4.453125 -3.4375 C 4.179688 -3.914062 4.046875 -4.582031 4.046875 -5.4375 L 4.046875 -29.203125 L 8.796875 -29.203125 L 8.796875 -6.203125 C 9.648438 -5.773438 10.613281 -5.453125 11.6875 -5.234375 C 12.769531 -5.023438 13.875 -4.921875 15 -4.921875 Z M 15 -4.921875 "/></g></g></g><g fill="#ffffff" fill-opacity="1"><g transform="translate(128.365695, 277.951285)"><g><path d="M 35.84375 -4.921875 L 35.84375 -0.078125 C 35.84375 -0.0546875 35.804688 -0.0351562 35.734375 -0.015625 C 35.671875 -0.00390625 35.492188 0 35.203125 0 L 0 0 C -0.289062 0 -0.46875 -0.00390625 -0.53125 -0.015625 C -0.601562 -0.0351562 -0.640625 -0.0546875 -0.640625 -0.078125 L -0.640625 -4.921875 L 6.15625 -4.921875 C 5.488281 -5.609375 4.960938 -6.425781 4.578125 -7.375 C 4.191406 -8.320312 4 -9.394531 4 -10.59375 C 4 -12.28125 4.382812 -13.722656 5.15625 -14.921875 C 5.925781 -16.117188 6.953125 -17.03125 8.234375 -17.65625 C 9.515625 -18.28125 10.914062 -18.59375 12.4375 -18.59375 C 14.007812 -18.59375 15.4375 -18.273438 16.71875 -17.640625 C 18 -17.003906 19.023438 -16.082031 19.796875 -14.875 C 20.566406 -13.675781 20.953125 -12.25 20.953125 -10.59375 C 20.953125 -9.375 20.757812 -8.296875 20.375 -7.359375 C 19.988281 -6.421875 19.453125 -5.59375 18.765625 -4.875 L 25.28125 -4.875 L 25.28125 -10.125 C 25.28125 -12.4375 24.945312 -14.363281 24.28125 -15.90625 C 23.613281 -17.457031 22.695312 -18.691406 21.53125 -19.609375 C 20.375 -20.535156 19.078125 -21.195312 17.640625 -21.59375 C 16.203125 -22 14.695312 -22.203125 13.125 -22.203125 C 12.21875 -22.203125 11.34375 -22.160156 10.5 -22.078125 C 9.65625 -21.992188 8.898438 -21.890625 8.234375 -21.765625 L 8.234375 -26.15625 C 8.953125 -26.257812 9.734375 -26.34375 10.578125 -26.40625 C 11.421875 -26.476562 12.304688 -26.515625 13.234375 -26.515625 C 15.585938 -26.515625 17.773438 -26.210938 19.796875 -25.609375 C 21.828125 -25.015625 23.609375 -24.054688 25.140625 -22.734375 C 26.671875 -21.421875 27.867188 -19.703125 28.734375 -17.578125 C 29.609375 -15.460938 30.046875 -12.894531 30.046875 -9.875 L 30.046875 -4.921875 Z M 12.4375 -14.3125 C 11.289062 -14.3125 10.316406 -13.925781 9.515625 -13.15625 C 8.710938 -12.382812 8.3125 -11.332031 8.3125 -10 C 8.3125 -8.613281 8.664062 -7.472656 9.375 -6.578125 C 10.082031 -5.679688 11.101562 -5.128906 12.4375 -4.921875 C 13.820312 -5.128906 14.851562 -5.679688 15.53125 -6.578125 C 16.21875 -7.472656 16.5625 -8.613281 16.5625 -10 C 16.5625 -11.332031 16.164062 -12.382812 15.375 -13.15625 C 14.59375 -13.925781 13.613281 -14.3125 12.4375 -14.3125 Z M 12.4375 -14.3125 "/></g></g></g><g fill="#ffffff" fill-opacity="1"><g transform="translate(163.562203, 277.951285)"><g><path d="M 17.125 -4.921875 L 17.765625 -4.921875 L 17.765625 -0.078125 C 17.765625 -0.0546875 17.726562 -0.0351562 17.65625 -0.015625 C 17.59375 -0.00390625 17.414062 0 17.125 0 L 17.078125 0 C 15.421875 0 13.875 -0.203125 12.4375 -0.609375 C 11 -1.023438 9.707031 -1.554688 8.5625 -2.203125 C 7.4375 -1.554688 6.15625 -1.023438 4.71875 -0.609375 C 3.28125 -0.203125 1.722656 0 0.046875 0 L 0 0 C -0.289062 0 -0.46875 -0.00390625 -0.53125 -0.015625 C -0.601562 -0.0351562 -0.640625 -0.0546875 -0.640625 -0.078125 L -0.640625 -4.921875 L 0 -4.921875 C 1.175781 -4.921875 2.296875 -5.023438 3.359375 -5.234375 C 4.421875 -5.453125 5.367188 -5.773438 6.203125 -6.203125 L 6.203125 -20 L 10.953125 -20 L 10.953125 -6.203125 C 11.785156 -5.773438 12.734375 -5.453125 13.796875 -5.234375 C 14.867188 -5.023438 15.976562 -4.921875 17.125 -4.921875 Z M 8.640625 2.921875 C 9.441406 2.921875 10.117188 3.191406 10.671875 3.734375 C 11.234375 4.285156 11.515625 4.972656 11.515625 5.796875 C 11.515625 6.628906 11.234375 7.320312 10.671875 7.875 C 10.117188 8.4375 9.441406 8.71875 8.640625 8.71875 C 7.816406 8.71875 7.125 8.4375 6.5625 7.875 C 6 7.320312 5.71875 6.628906 5.71875 5.796875 C 5.71875 4.972656 6 4.285156 6.5625 3.734375 C 7.125 3.191406 7.816406 2.921875 8.640625 2.921875 Z M 8.640625 2.921875 "/></g></g></g><g fill="#ffffff" fill-opacity="1"><g transform="translate(180.680503, 277.951285)"><g><path d="M 41.359375 -4.921875 L 41.359375 -0.078125 C 41.359375 -0.0546875 41.320312 -0.0351562 41.25 -0.015625 C 41.1875 -0.00390625 41.007812 0 40.71875 0 L 0 0 C -0.289062 0 -0.46875 -0.00390625 -0.53125 -0.015625 C -0.601562 -0.0351562 -0.640625 -0.0546875 -0.640625 -0.078125 L -0.640625 -4.921875 L 6.203125 -4.921875 L 6.203125 -28.6875 L 10.953125 -28.6875 L 10.953125 -13.6875 C 13.253906 -16.050781 15.523438 -17.910156 17.765625 -19.265625 C 20.003906 -20.628906 22.390625 -21.3125 24.921875 -21.3125 C 26.835938 -21.3125 28.546875 -20.90625 30.046875 -20.09375 C 31.554688 -19.28125 32.738281 -18.0625 33.59375 -16.4375 C 34.445312 -14.8125 34.875 -12.757812 34.875 -10.28125 L 34.875 -4.921875 Z M 10.953125 -4.921875 L 30.15625 -4.921875 L 30.15625 -9.515625 C 30.15625 -10.710938 29.96875 -11.859375 29.59375 -12.953125 C 29.226562 -14.046875 28.609375 -14.941406 27.734375 -15.640625 C 26.867188 -16.335938 25.664062 -16.6875 24.125 -16.6875 C 22.070312 -16.6875 20 -15.953125 17.90625 -14.484375 C 15.8125 -13.015625 13.492188 -10.800781 10.953125 -7.84375 Z M 10.953125 -4.921875 "/></g></g></g><g fill="#ffffff" fill-opacity="1"><g transform="translate(221.396462, 277.951285)"><g><path d="M 21.40625 -24.953125 C 20.65625 -24.953125 20.023438 -25.207031 19.515625 -25.71875 C 19.015625 -26.226562 18.765625 -26.851562 18.765625 -27.59375 C 18.765625 -28.320312 19.015625 -28.9375 19.515625 -29.4375 C 20.023438 -29.945312 20.65625 -30.203125 21.40625 -30.203125 C 22.09375 -30.203125 22.695312 -29.945312 23.21875 -29.4375 C 23.738281 -28.9375 24 -28.320312 24 -27.59375 C 24 -26.851562 23.738281 -26.226562 23.21875 -25.71875 C 22.695312 -25.207031 22.09375 -24.953125 21.40625 -24.953125 Z M 17.796875 -19.40625 C 17.054688 -19.40625 16.429688 -19.65625 15.921875 -20.15625 C 15.410156 -20.664062 15.15625 -21.28125 15.15625 -22 C 15.15625 -22.75 15.410156 -23.375 15.921875 -23.875 C 16.429688 -24.382812 17.054688 -24.640625 17.796875 -24.640625 C 18.515625 -24.640625 19.128906 -24.382812 19.640625 -23.875 C 20.148438 -23.375 20.40625 -22.75 20.40625 -22 C 20.40625 -21.28125 20.148438 -20.664062 19.640625 -20.15625 C 19.128906 -19.65625 18.515625 -19.40625 17.796875 -19.40625 Z M 22.40625 -22 C 22.40625 -22.75 22.660156 -23.375 23.171875 -23.875 C 23.691406 -24.382812 24.328125 -24.640625 25.078125 -24.640625 C 25.796875 -24.640625 26.398438 -24.382812 26.890625 -23.875 C 27.390625 -23.375 27.640625 -22.75 27.640625 -22 C 27.640625 -21.25 27.390625 -20.628906 26.890625 -20.140625 C 26.398438 -19.648438 25.796875 -19.40625 25.078125 -19.40625 C 24.328125 -19.40625 23.691406 -19.648438 23.171875 -20.140625 C 22.660156 -20.628906 22.40625 -21.25 22.40625 -22 Z M 31.84375 -19.59375 L 36.59375 -19.59375 L 36.59375 -3.5625 C 35.5625 -2.46875 34.273438 -1.597656 32.734375 -0.953125 C 31.203125 -0.316406 29.582031 0 27.875 0 C 26.65625 0 25.503906 -0.191406 24.421875 -0.578125 C 23.335938 -0.960938 22.367188 -1.476562 21.515625 -2.125 C 20.660156 -1.476562 19.691406 -0.960938 18.609375 -0.578125 C 17.535156 -0.191406 16.359375 0 15.078125 0 C 13.609375 0 12.304688 -0.222656 11.171875 -0.671875 C 10.046875 -1.128906 9.132812 -1.625 8.4375 -2.15625 C 7.613281 -1.59375 6.46875 -1.09375 5 -0.65625 C 3.53125 -0.21875 1.863281 0 0 0 L -0.046875 0 C -0.335938 0 -0.515625 -0.00390625 -0.578125 -0.015625 C -0.648438 -0.0351562 -0.6875 -0.0546875 -0.6875 -0.078125 L -0.6875 -4.921875 L -0.046875 -4.921875 C 1.128906 -4.921875 2.25 -5.039062 3.3125 -5.28125 C 4.382812 -5.519531 5.332031 -5.835938 6.15625 -6.234375 L 6.15625 -15.078125 L 10.921875 -15.078125 L 10.921875 -6.15625 C 12.117188 -5.332031 13.460938 -4.921875 14.953125 -4.921875 C 16.421875 -4.921875 17.769531 -5.320312 19 -6.125 L 19 -15.078125 L 23.765625 -15.078125 L 23.765625 -6.125 C 24.984375 -5.320312 26.328125 -4.921875 27.796875 -4.921875 C 29.296875 -4.921875 30.644531 -5.332031 31.84375 -6.15625 Z M 31.84375 -19.59375 "/></g></g></g></svg>