<svg width="20" height="21" viewBox="0 0 20 21" fill="none" xmlns="http://www.w3.org/2000/svg">
<path d="M18.3333 6.5415H13.3333C12.9916 6.5415 12.7083 6.25817 12.7083 5.9165C12.7083 5.57484 12.9916 5.2915 13.3333 5.2915H18.3333C18.6749 5.2915 18.9583 5.57484 18.9583 5.9165C18.9583 6.25817 18.6749 6.5415 18.3333 6.5415Z" fill="#949D9E"/>
<path d="M5.00008 6.5415H1.66675C1.32508 6.5415 1.04175 6.25817 1.04175 5.9165C1.04175 5.57484 1.32508 5.2915 1.66675 5.2915H5.00008C5.34175 5.2915 5.62508 5.57484 5.62508 5.9165C5.62508 6.25817 5.34175 6.5415 5.00008 6.5415Z" fill="#949D9E"/>
<path d="M8.33341 9.45833C6.38341 9.45833 4.79175 7.86667 4.79175 5.91667C4.79175 3.96667 6.38341 2.375 8.33341 2.375C10.2834 2.375 11.8751 3.96667 11.8751 5.91667C11.8751 7.86667 10.2834 9.45833 8.33341 9.45833ZM8.33341 3.625C7.06675 3.625 6.04175 4.65 6.04175 5.91667C6.04175 7.18333 7.06675 8.20833 8.33341 8.20833C9.60008 8.20833 10.6251 7.18333 10.6251 5.91667C10.6251 4.65 9.60008 3.625 8.33341 3.625Z" fill="#949D9E"/>
<path d="M18.3333 15.7085H15C14.6583 15.7085 14.375 15.4252 14.375 15.0835C14.375 14.7418 14.6583 14.4585 15 14.4585H18.3333C18.675 14.4585 18.9583 14.7418 18.9583 15.0835C18.9583 15.4252 18.675 15.7085 18.3333 15.7085Z" fill="#949D9E"/>
<path d="M6.66675 15.7085H1.66675C1.32508 15.7085 1.04175 15.4252 1.04175 15.0835C1.04175 14.7418 1.32508 14.4585 1.66675 14.4585H6.66675C7.00841 14.4585 7.29175 14.7418 7.29175 15.0835C7.29175 15.4252 7.00841 15.7085 6.66675 15.7085Z" fill="#949D9E"/>
<path d="M11.6667 18.6248C9.71667 18.6248 8.125 17.0332 8.125 15.0832C8.125 13.1332 9.71667 11.5415 11.6667 11.5415C13.6167 11.5415 15.2083 13.1332 15.2083 15.0832C15.2083 17.0332 13.6167 18.6248 11.6667 18.6248ZM11.6667 12.7915C10.4 12.7915 9.375 13.8165 9.375 15.0832C9.375 16.3498 10.4 17.3748 11.6667 17.3748C12.9333 17.3748 13.9583 16.3498 13.9583 15.0832C13.9583 13.8165 12.9333 12.7915 11.6667 12.7915Z" fill="#949D9E"/>
</svg>
